<svg width="39" height="39" viewBox="0 0 39 39" fill="none" xmlns="http://www.w3.org/2000/svg">
<path d="M10.1146 31.2131H13.9506V27.377H17.7867V23.5409H13.9506V19.7049H10.1146V23.5409H6.27851V27.377H10.1146V31.2131ZM21.6228 24.4999H33.131V21.6229H21.6228V24.4999ZM21.6228 30.254H29.2949V27.377H21.6228V30.254ZM4.36048 38.8852C3.30556 38.8852 2.40281 38.5099 1.65222 37.7593C0.901627 37.0087 0.525693 36.1053 0.524414 35.0491V13.9508C0.524414 12.8958 0.900349 11.9931 1.65222 11.2425C2.40409 10.4919 3.30684 10.116 4.36048 10.1147H13.9506V4.3606C13.9506 3.30568 14.3266 2.40293 15.0784 1.65234C15.8303 0.901749 16.7331 0.525815 17.7867 0.524536H21.6228C22.6777 0.524536 23.5811 0.900471 24.333 1.65234C25.0848 2.40421 25.4601 3.30696 25.4588 4.3606V10.1147H35.049C36.1039 10.1147 37.0073 10.4906 37.7592 11.2425C38.5111 11.9944 38.8864 12.8971 38.8851 13.9508V35.0491C38.8851 36.104 38.5098 37.0074 37.7592 37.7593C37.0086 38.5112 36.1052 38.8865 35.049 38.8852H4.36048ZM4.36048 35.0491H35.049V13.9508H25.4588C25.4588 15.0057 25.0835 15.9091 24.333 16.6609C23.5824 17.4128 22.679 17.7881 21.6228 17.7868H17.7867C16.7318 17.7868 15.829 17.4115 15.0784 16.6609C14.3279 15.9104 13.9519 15.007 13.9506 13.9508H4.36048V35.0491ZM17.7867 13.9508H21.6228V4.3606H17.7867V13.9508Z" fill="black"/>
</svg>
