<svg width="34" height="46" viewBox="0 0 34 46" fill="none" xmlns="http://www.w3.org/2000/svg">
<path d="M8.87503 36H25.125V39.25H8.87503V36ZM12.125 42.5H21.875V45.75H12.125V42.5ZM17 0.25C12.6903 0.25 8.55701 1.96205 5.50954 5.00951C2.46208 8.05698 0.750029 12.1902 0.750029 16.5C0.640137 18.8617 1.09254 21.2157 2.07001 23.3684C3.04748 25.5211 4.52209 27.411 6.37253 28.8825C7.99753 30.3938 8.87503 31.255 8.87503 32.75H12.125C12.125 29.76 10.3213 28.0862 8.56628 26.4775C7.04749 25.3144 5.83704 23.7967 5.04097 22.0572C4.2449 20.3178 3.88748 18.4097 4.00003 16.5C4.00003 13.0522 5.36967 9.74558 7.80764 7.30761C10.2456 4.86964 13.5522 3.5 17 3.5C20.4478 3.5 23.7544 4.86964 26.1924 7.30761C28.6304 9.74558 30 13.0522 30 16.5C30.1107 18.4111 29.7508 20.3201 28.9518 22.0597C28.1529 23.7992 26.9393 25.3162 25.4175 26.4775C23.6788 28.1025 21.875 29.7275 21.875 32.75H25.125C25.125 31.255 25.9863 30.3938 27.6275 28.8663C29.4767 27.3972 30.9506 25.5101 31.9281 23.3603C32.9056 21.2104 33.3586 18.8592 33.25 16.5C33.25 14.366 32.8297 12.2529 32.0131 10.2814C31.1964 8.30985 29.9995 6.51847 28.4905 5.00951C26.9816 3.50056 25.1902 2.3036 23.2186 1.48696C21.2471 0.670319 19.134 0.25 17 0.25Z" fill="black"/>
</svg>
