<svg width="51" height="46" viewBox="0 0 51 46" fill="none" xmlns="http://www.w3.org/2000/svg">
<path d="M10.7667 45.3333C9.35 45.3333 8.14583 44.8375 7.15417 43.8458C6.1625 42.8542 5.66667 41.65 5.66667 40.2333C5.66667 39.2417 5.95 38.3095 6.51667 37.4368C7.08333 36.5642 7.83889 35.938 8.78333 35.5583L19.8333 31.1667V24.7917C17.5667 27.3889 15.0167 29.4553 12.1833 30.991C9.35 32.5267 6.28056 33.4824 2.975 33.8583C2.17222 33.9528 1.47617 33.7289 0.886833 33.1868C0.2975 32.6447 0.00188889 31.9713 0 31.1667C0 30.3639 0.259722 29.6792 0.779167 29.1125C1.29861 28.5458 1.95972 28.2153 2.7625 28.1208C5.35972 27.7431 7.74444 26.9403 9.91667 25.7125C12.0889 24.4847 14.0722 22.8083 15.8667 20.6833L19.6917 16.15C20.2583 15.4889 20.9194 14.9931 21.675 14.6625C22.4306 14.3319 23.2333 14.1667 24.0833 14.1667H26.9167C27.7667 14.1667 28.5694 14.3319 29.325 14.6625C30.0806 14.9931 30.7417 15.4889 31.3083 16.15L35.1333 20.6833C36.9278 22.8083 38.9111 24.4847 41.0833 25.7125C43.2556 26.9403 45.6403 27.7431 48.2375 28.1208C49.0403 28.2153 49.7014 28.5458 50.2208 29.1125C50.7403 29.6792 51 30.3639 51 31.1667C51 31.9694 50.7044 32.6428 50.1132 33.1868C49.5219 33.7308 48.8259 33.9547 48.025 33.8583C44.7194 33.4806 41.65 32.5248 38.8167 30.991C35.9833 29.4572 33.4333 27.3908 31.1667 24.7917V31.1667L42.2167 35.5583C43.1611 35.9361 43.9167 36.5623 44.4833 37.4368C45.05 38.3114 45.3333 39.2436 45.3333 40.2333C45.3333 41.65 44.8375 42.8542 43.8458 43.8458C42.8542 44.8375 41.65 45.3333 40.2333 45.3333H19.8333V43.9167C19.8333 42.6889 20.2347 41.6736 21.0375 40.8708C21.8403 40.0681 22.8556 39.6667 24.0833 39.6667H32.5833C33.0083 39.6667 33.3512 39.5373 33.6118 39.2785C33.8725 39.0197 34.0019 38.6769 34 38.25C34 37.825 33.8706 37.4822 33.6118 37.2215C33.3531 36.9608 33.0102 36.8314 32.5833 36.8333H24.0833C22.1 36.8333 20.4236 37.5181 19.0542 38.8875C17.6847 40.2569 17 41.9333 17 43.9167V45.3333H10.7667ZM25.5 11.3333C23.9417 11.3333 22.6081 10.7789 21.4993 9.67017C20.3906 8.56139 19.8352 7.22689 19.8333 5.66667C19.8333 4.10833 20.3887 2.77478 21.4993 1.666C22.61 0.557222 23.9436 0.00188889 25.5 0C27.0583 0 28.3928 0.555333 29.5035 1.666C30.6142 2.77667 31.1686 4.11022 31.1667 5.66667C31.1667 7.225 30.6123 8.5595 29.5035 9.67017C28.3947 10.7808 27.0602 11.3352 25.5 11.3333Z" fill="black"/>
</svg>
